<svg xmlns:xlink="http://www.w3.org/1999/xlink" xmlns="http://www.w3.org/2000/svg" class="css-ze2te4 css-qd6ojx" viewBox="0 0 76.08695652173913 76.08683820595752" width="110"  height="110" ><defs><linearGradient id="SvgjsLinearGradient9385"><stop id="SvgjsStop9386" stop-color="#7f00ff" offset="0"></stop><stop id="SvgjsStop9387" stop-color="#e100ff" offset="1"></stop></linearGradient><linearGradient id="SvgjsLinearGradient9385"><stop id="SvgjsStop9386" stop-color="#7f00ff" offset="0"></stop><stop id="SvgjsStop9387" stop-color="#e100ff" offset="1"></stop></linearGradient><linearGradient id="SvgjsLinearGradient9385"><stop id="SvgjsStop9386" stop-color="#7f00ff" offset="0"></stop><stop id="SvgjsStop9387" stop-color="#e100ff" offset="1"></stop></linearGradient><linearGradient id="SvgjsLinearGradient9385"><stop id="SvgjsStop9386" stop-color="#7f00ff" offset="0"></stop><stop id="SvgjsStop9387" stop-color="#e100ff" offset="1"></stop></linearGradient><linearGradient id="SvgjsLinearGradient9385"><stop id="SvgjsStop9386" stop-color="#7f00ff" offset="0"></stop><stop id="SvgjsStop9387" stop-color="#e100ff" offset="1"></stop></linearGradient><linearGradient id="SvgjsLinearGradient9385"><stop id="SvgjsStop9386" stop-color="#7f00ff" offset="0"></stop><stop id="SvgjsStop9387" stop-color="#e100ff" offset="1"></stop></linearGradient><linearGradient id="SvgjsLinearGradient9385"><stop id="SvgjsStop9386" stop-color="#7f00ff" offset="0"></stop><stop id="SvgjsStop9387" stop-color="#e100ff" offset="1"></stop></linearGradient><linearGradient id="SvgjsLinearGradient9385"><stop id="SvgjsStop9386" stop-color="#7f00ff" offset="0"></stop><stop id="SvgjsStop9387" stop-color="#e100ff" offset="1"></stop></linearGradient><linearGradient id="SvgjsLinearGradient9385"><stop id="SvgjsStop9386" stop-color="#7f00ff" offset="0"></stop><stop id="SvgjsStop9387" stop-color="#e100ff" offset="1"></stop></linearGradient><linearGradient id="SvgjsLinearGradient9385"><stop id="SvgjsStop9386" stop-color="#7f00ff" offset="0"></stop><stop id="SvgjsStop9387" stop-color="#e100ff" offset="1"></stop></linearGradient><linearGradient id="SvgjsLinearGradient9385"><stop id="SvgjsStop9386" stop-color="#7f00ff" offset="0"></stop><stop id="SvgjsStop9387" stop-color="#e100ff" offset="1"></stop></linearGradient><linearGradient id="SvgjsLinearGradient9385"><stop id="SvgjsStop9386" stop-color="#7f00ff" offset="0"></stop><stop id="SvgjsStop9387" stop-color="#e100ff" offset="1"></stop></linearGradient><linearGradient id="SvgjsLinearGradient9385"><stop id="SvgjsStop9386" stop-color="#7f00ff" offset="0"></stop><stop id="SvgjsStop9387" stop-color="#e100ff" offset="1"></stop></linearGradient><linearGradient id="SvgjsLinearGradient9385"><stop id="SvgjsStop9386" stop-color="#7f00ff" offset="0"></stop><stop id="SvgjsStop9387" stop-color="#e100ff" offset="1"></stop></linearGradient></defs><g transform="translate(-10.369788527865182, -10.418273041089972) scale(0.9692428829465632)" class="css-1hmjd2o" fill="url(&quot;#SvgjsLinearGradient9385&quot;)"><title xmlns="http://www.w3.org/2000/svg">Artboard 81</title><path xmlns="http://www.w3.org/2000/svg" d="M50,89.25A39.25,39.25,0,1,1,89.2,50a38.7,38.7,0,0,1-8.27,24.06,1,1,0,1,1-1.58-1.23A36.69,36.69,0,0,0,87.2,50,37.25,37.25,0,1,0,50,87.25a36.77,36.77,0,0,0,23.12-8.08,1,1,0,0,1,1.25,1.57A38.8,38.8,0,0,1,50,89.25Z" fill="url(&quot;#SvgjsLinearGradient9385&quot;)"></path><path xmlns="http://www.w3.org/2000/svg" d="M50,74.3A24.33,24.33,0,0,1,25.65,50a24,24,0,0,1,4.24-13.68,1,1,0,1,1,1.65,1.13A22.09,22.09,0,0,0,27.65,50,22.32,22.32,0,1,0,37.71,31.37a1,1,0,1,1-1.1-1.67A24.3,24.3,0,1,1,50,74.3Z" fill="url(&quot;#SvgjsLinearGradient9385&quot;)"></path><path xmlns="http://www.w3.org/2000/svg" d="M50,59.34A9.34,9.34,0,1,1,59.29,50,9.35,9.35,0,0,1,50,59.34Zm0-16.68A7.34,7.34,0,1,0,57.29,50,7.34,7.34,0,0,0,50,42.66Z" fill="url(&quot;#SvgjsLinearGradient9385&quot;)"></path><path xmlns="http://www.w3.org/2000/svg" d="M33.42,38.78A5.59,5.59,0,1,1,39,33.19,5.59,5.59,0,0,1,33.42,38.78Zm0-9.18A3.59,3.59,0,1,0,37,33.19,3.59,3.59,0,0,0,33.42,29.6Z" fill="url(&quot;#SvgjsLinearGradient9385&quot;)"></path><path xmlns="http://www.w3.org/2000/svg" d="M77,82.38a5.59,5.59,0,1,1,5.59-5.59A5.6,5.6,0,0,1,77,82.38Zm0-9.18a3.59,3.59,0,1,0,3.59,3.59A3.59,3.59,0,0,0,77,73.2Z" fill="url(&quot;#SvgjsLinearGradient9385&quot;)"></path><path xmlns="http://www.w3.org/2000/svg" d="M50,42.66a1,1,0,0,1-1-1V38.79a1,1,0,0,1,2,0v2.87A1,1,0,0,1,50,42.66Z" fill="url(&quot;#SvgjsLinearGradient9385&quot;)"></path><path xmlns="http://www.w3.org/2000/svg" d="M50,62.27a1,1,0,0,1-1-1V58.41a1,1,0,0,1,2,0v2.86A1,1,0,0,1,50,62.27Z" fill="url(&quot;#SvgjsLinearGradient9385&quot;)"></path><path xmlns="http://www.w3.org/2000/svg" d="M61.25,51H58.38a1,1,0,1,1,0-2h2.87a1,1,0,0,1,0,2Z" fill="url(&quot;#SvgjsLinearGradient9385&quot;)"></path><path xmlns="http://www.w3.org/2000/svg" d="M41.64,51H38.77a1,1,0,0,1,0-2h2.87a1,1,0,0,1,0,2Z" fill="url(&quot;#SvgjsLinearGradient9385&quot;)"></path><path xmlns="http://www.w3.org/2000/svg" d="M44.09,45.11a1,1,0,0,1-.71-.29l-2-2a1,1,0,1,1,1.41-1.41l2,2a1,1,0,0,1,0,1.42A1,1,0,0,1,44.09,45.11Z" fill="url(&quot;#SvgjsLinearGradient9385&quot;)"></path><path xmlns="http://www.w3.org/2000/svg" d="M58,59a1,1,0,0,1-.71-.3l-2-2a1,1,0,0,1,1.41-1.41l2,2A1,1,0,0,1,58,59Z" fill="url(&quot;#SvgjsLinearGradient9385&quot;)"></path><path xmlns="http://www.w3.org/2000/svg" d="M55.93,45.11a1,1,0,0,1-.7-.29,1,1,0,0,1,0-1.42l2-2a1,1,0,0,1,1.41,0,1,1,0,0,1,0,1.41l-2,2A1,1,0,0,1,55.93,45.11Z" fill="url(&quot;#SvgjsLinearGradient9385&quot;)"></path><path xmlns="http://www.w3.org/2000/svg" d="M42.06,59a1,1,0,0,1-.7-.3,1,1,0,0,1,0-1.41l2-2a1,1,0,1,1,1.42,1.41l-2,2A1,1,0,0,1,42.06,59Z" fill="url(&quot;#SvgjsLinearGradient9385&quot;)"></path></g></svg>