<svg xmlns:xlink="http://www.w3.org/1999/xlink" xmlns="http://www.w3.org/2000/svg" viewBox="0 0 369.9130434782609 76.08683820595752" preserveAspectRatio="xMidYMid meet" class="css-18azjue" id="ghfccddg" width="369.9130434782609"  height="76.08683820595752" ><defs id="SvgjsDefs9380"><linearGradient id="SvgjsLinearGradient9385"><stop id="SvgjsStop9386" stop-color="#7f00ff" offset="0"></stop><stop id="SvgjsStop9387" stop-color="#e100ff" offset="1"></stop></linearGradient><linearGradient id="SvgjsLinearGradient9388"><stop id="SvgjsStop9389" stop-color="#7f00ff" offset="0"></stop><stop id="SvgjsStop9390" stop-color="#e100ff" offset="1"></stop></linearGradient><linearGradient id="SvgjsLinearGradient9385"><stop id="SvgjsStop9386" stop-color="#7f00ff" offset="0"></stop><stop id="SvgjsStop9387" stop-color="#e100ff" offset="1"></stop></linearGradient><linearGradient id="SvgjsLinearGradient9385"><stop id="SvgjsStop9386" stop-color="#7f00ff" offset="0"></stop><stop id="SvgjsStop9387" stop-color="#e100ff" offset="1"></stop></linearGradient><linearGradient id="SvgjsLinearGradient9385"><stop id="SvgjsStop9386" stop-color="#7f00ff" offset="0"></stop><stop id="SvgjsStop9387" stop-color="#e100ff" offset="1"></stop></linearGradient><linearGradient id="SvgjsLinearGradient9385"><stop id="SvgjsStop9386" stop-color="#7f00ff" offset="0"></stop><stop id="SvgjsStop9387" stop-color="#e100ff" offset="1"></stop></linearGradient><linearGradient id="SvgjsLinearGradient9385"><stop id="SvgjsStop9386" stop-color="#7f00ff" offset="0"></stop><stop id="SvgjsStop9387" stop-color="#e100ff" offset="1"></stop></linearGradient><linearGradient id="SvgjsLinearGradient9385"><stop id="SvgjsStop9386" stop-color="#7f00ff" offset="0"></stop><stop id="SvgjsStop9387" stop-color="#e100ff" offset="1"></stop></linearGradient><linearGradient id="SvgjsLinearGradient9385"><stop id="SvgjsStop9386" stop-color="#7f00ff" offset="0"></stop><stop id="SvgjsStop9387" stop-color="#e100ff" offset="1"></stop></linearGradient><linearGradient id="SvgjsLinearGradient9385"><stop id="SvgjsStop9386" stop-color="#7f00ff" offset="0"></stop><stop id="SvgjsStop9387" stop-color="#e100ff" offset="1"></stop></linearGradient><linearGradient id="SvgjsLinearGradient9385"><stop id="SvgjsStop9386" stop-color="#7f00ff" offset="0"></stop><stop id="SvgjsStop9387" stop-color="#e100ff" offset="1"></stop></linearGradient><linearGradient id="SvgjsLinearGradient9385"><stop id="SvgjsStop9386" stop-color="#7f00ff" offset="0"></stop><stop id="SvgjsStop9387" stop-color="#e100ff" offset="1"></stop></linearGradient><linearGradient id="SvgjsLinearGradient9385"><stop id="SvgjsStop9386" stop-color="#7f00ff" offset="0"></stop><stop id="SvgjsStop9387" stop-color="#e100ff" offset="1"></stop></linearGradient><linearGradient id="SvgjsLinearGradient9385"><stop id="SvgjsStop9386" stop-color="#7f00ff" offset="0"></stop><stop id="SvgjsStop9387" stop-color="#e100ff" offset="1"></stop></linearGradient><linearGradient id="SvgjsLinearGradient9385"><stop id="SvgjsStop9386" stop-color="#7f00ff" offset="0"></stop><stop id="SvgjsStop9387" stop-color="#e100ff" offset="1"></stop></linearGradient><linearGradient id="SvgjsLinearGradient9385"><stop id="SvgjsStop9386" stop-color="#7f00ff" offset="0"></stop><stop id="SvgjsStop9387" stop-color="#e100ff" offset="1"></stop></linearGradient><linearGradient id="SvgjsLinearGradient9388"><stop id="SvgjsStop9389" stop-color="#7f00ff" offset="0"></stop><stop id="SvgjsStop9390" stop-color="#e100ff" offset="1"></stop></linearGradient><linearGradient id="SvgjsLinearGradient9388"><stop id="SvgjsStop9389" stop-color="#7f00ff" offset="0"></stop><stop id="SvgjsStop9390" stop-color="#e100ff" offset="1"></stop></linearGradient></defs><g id="SvgjsG9381" featurekey="HdFLvg-0" transform="matrix(0.9692428708076477,0,0,0.9692428708076477,-10.369788527865182,-10.418273041089972)" fill="url(&quot;#SvgjsLinearGradient9385&quot;)"><title xmlns="http://www.w3.org/2000/svg">Artboard 81</title><path xmlns="http://www.w3.org/2000/svg" d="M50,89.25A39.25,39.25,0,1,1,89.2,50a38.7,38.7,0,0,1-8.27,24.06,1,1,0,1,1-1.58-1.23A36.69,36.69,0,0,0,87.2,50,37.25,37.25,0,1,0,50,87.25a36.77,36.77,0,0,0,23.12-8.08,1,1,0,0,1,1.25,1.57A38.8,38.8,0,0,1,50,89.25Z" fill="url(&quot;#SvgjsLinearGradient9385&quot;)"></path><path xmlns="http://www.w3.org/2000/svg" d="M50,74.3A24.33,24.33,0,0,1,25.65,50a24,24,0,0,1,4.24-13.68,1,1,0,1,1,1.65,1.13A22.09,22.09,0,0,0,27.65,50,22.32,22.32,0,1,0,37.71,31.37a1,1,0,1,1-1.1-1.67A24.3,24.3,0,1,1,50,74.3Z" fill="url(&quot;#SvgjsLinearGradient9385&quot;)"></path><path xmlns="http://www.w3.org/2000/svg" d="M50,59.34A9.34,9.34,0,1,1,59.29,50,9.35,9.35,0,0,1,50,59.34Zm0-16.68A7.34,7.34,0,1,0,57.29,50,7.34,7.34,0,0,0,50,42.66Z" fill="url(&quot;#SvgjsLinearGradient9385&quot;)"></path><path xmlns="http://www.w3.org/2000/svg" d="M33.42,38.78A5.59,5.59,0,1,1,39,33.19,5.59,5.59,0,0,1,33.42,38.78Zm0-9.18A3.59,3.59,0,1,0,37,33.19,3.59,3.59,0,0,0,33.42,29.6Z" fill="url(&quot;#SvgjsLinearGradient9385&quot;)"></path><path xmlns="http://www.w3.org/2000/svg" d="M77,82.38a5.59,5.59,0,1,1,5.59-5.59A5.6,5.6,0,0,1,77,82.38Zm0-9.18a3.59,3.59,0,1,0,3.59,3.59A3.59,3.59,0,0,0,77,73.2Z" fill="url(&quot;#SvgjsLinearGradient9385&quot;)"></path><path xmlns="http://www.w3.org/2000/svg" d="M50,42.66a1,1,0,0,1-1-1V38.79a1,1,0,0,1,2,0v2.87A1,1,0,0,1,50,42.66Z" fill="url(&quot;#SvgjsLinearGradient9385&quot;)"></path><path xmlns="http://www.w3.org/2000/svg" d="M50,62.27a1,1,0,0,1-1-1V58.41a1,1,0,0,1,2,0v2.86A1,1,0,0,1,50,62.27Z" fill="url(&quot;#SvgjsLinearGradient9385&quot;)"></path><path xmlns="http://www.w3.org/2000/svg" d="M61.25,51H58.38a1,1,0,1,1,0-2h2.87a1,1,0,0,1,0,2Z" fill="url(&quot;#SvgjsLinearGradient9385&quot;)"></path><path xmlns="http://www.w3.org/2000/svg" d="M41.64,51H38.77a1,1,0,0,1,0-2h2.87a1,1,0,0,1,0,2Z" fill="url(&quot;#SvgjsLinearGradient9385&quot;)"></path><path xmlns="http://www.w3.org/2000/svg" d="M44.09,45.11a1,1,0,0,1-.71-.29l-2-2a1,1,0,1,1,1.41-1.41l2,2a1,1,0,0,1,0,1.42A1,1,0,0,1,44.09,45.11Z" fill="url(&quot;#SvgjsLinearGradient9385&quot;)"></path><path xmlns="http://www.w3.org/2000/svg" d="M58,59a1,1,0,0,1-.71-.3l-2-2a1,1,0,0,1,1.41-1.41l2,2A1,1,0,0,1,58,59Z" fill="url(&quot;#SvgjsLinearGradient9385&quot;)"></path><path xmlns="http://www.w3.org/2000/svg" d="M55.93,45.11a1,1,0,0,1-.7-.29,1,1,0,0,1,0-1.42l2-2a1,1,0,0,1,1.41,0,1,1,0,0,1,0,1.41l-2,2A1,1,0,0,1,55.93,45.11Z" fill="url(&quot;#SvgjsLinearGradient9385&quot;)"></path><path xmlns="http://www.w3.org/2000/svg" d="M42.06,59a1,1,0,0,1-.7-.3,1,1,0,0,1,0-1.41l2-2a1,1,0,1,1,1.42,1.41l-2,2A1,1,0,0,1,42.06,59Z" fill="url(&quot;#SvgjsLinearGradient9385&quot;)"></path></g><g id="SvgjsG9382" featurekey="VomJeJ-0" transform="matrix(3.095202684402466,0,0,3.095202684402466,96.30952039234992,-8.58075094283512)" fill="url(&quot;#SvgjsLinearGradient9388&quot;)"><path d="M7.04 10 q0.12 0.56 0.12 1.12 t-0.12 1.1 l-2.38 -0.04 l0 4.6 q0 0.94 0.88 0.94 l1.12 0 q0.26 0.72 0.26 1.32 t-0.08 0.86 q-1.48 0.2 -2.72 0.2 q-2.52 0 -2.52 -2.78 l0 -5.12 l-1.56 0.02 q-0.14 -0.5 -0.14 -1.09 t0.14 -1.13 l1.56 0.04 l0 -1.16 q0 -1.02 0.39 -1.45 t1.31 -0.43 l1.22 0 l0.14 0.14 l0 2.9 z M14.0495 12.32 l0 7.1 q0 1.16 -0.16 2 t-0.59 1.43 t-1.18 0.96 t-1.91 0.59 q-0.34 -0.26 -0.58 -0.81 t-0.26 -1.09 q0.46 -0.2 0.77 -0.41 t0.49 -0.49 t0.26 -0.65 t0.08 -0.89 l0 -6.68 q0 -1.16 -0.94 -1.16 l-0.48 0 q-0.08 -0.24 -0.11 -0.52 t-0.03 -0.56 q0 -0.62 0.14 -1.1 q0.58 -0.04 1.06 -0.07 t0.86 -0.03 l0.44 0 q0.98 0 1.56 0.64 t0.58 1.74 z M10.4895 6 q0.58 -0.32 1.5 -0.32 q0.94 0 1.46 0.32 q0.24 0.54 0.24 1.16 t-0.24 1.16 q-0.58 0.3 -1.52 0.3 t-1.44 -0.3 q-0.24 -0.54 -0.24 -1.16 t0.24 -1.16 z M24.859 10.9 q1.44 1.44 1.44 4.12 q0 1.2 -0.31 2.18 t-0.9 1.67 t-1.45 1.06 t-1.98 0.37 t-1.97 -0.38 t-1.44 -1.07 t-0.89 -1.67 t-0.3 -2.16 q0 -1.2 0.3 -2.17 t0.88 -1.67 t1.44 -1.08 t1.98 -0.38 q1.98 0 3.2 1.18 z M21.679 12.059999999999999 q-0.44 0 -0.71 0.21 t-0.43 0.57 t-0.22 0.83 t-0.06 1.01 q0 0.84 0.05 1.45 t0.2 1.02 t0.42 0.61 t0.71 0.2 q0.88 0 1.16 -0.77 t0.28 -2.19 q0 -1.44 -0.28 -2.19 t-1.12 -0.75 z M29.4485 17.42 q0.34 -0.18 0.74 -0.27 t0.82 -0.09 q0.92 0 1.58 0.36 q0.24 0.52 0.24 1.22 q0 0.34 -0.06 0.65 t-0.18 0.55 q-0.56 0.38 -1.58 0.38 q-1 0 -1.56 -0.38 q-0.12 -0.24 -0.18 -0.55 t-0.06 -0.65 q0 -0.7 0.24 -1.22 z M35.538 19.32 q0.02 -0.52 0.27 -1.14 t0.59 -0.98 q1.6 0.84 2.78 0.84 q0.56 0 0.86 -0.19 t0.3 -0.51 q0 -0.6 -0.92 -0.9 l-1.1 -0.42 q-2.5 -0.92 -2.5 -3 q0 -1.52 1.05 -2.41 t2.83 -0.89 q0.88 0 1.94 0.25 t1.74 0.59 q0.04 0.56 -0.22 1.23 t-0.64 0.95 q-1.68 -0.76 -2.8 -0.76 q-0.4 0 -0.61 0.18 t-0.21 0.46 q0 0.48 0.76 0.76 l1.24 0.44 q2.66 0.94 2.66 3.22 q0 1.5 -1.1 2.38 t-3.14 0.88 t-3.78 -0.98 z M51.3475 20.2 q-0.92 0 -1.84 -0.42 l0 2.66 q0 1.04 -0.38 1.46 t-1.34 0.42 l-1.2 0 l-0.14 -0.14 l0 -14.16 l0.14 -0.14 l0.82 0 q1.14 0 1.7 0.98 q1.14 -1.14 2.78 -1.14 q0.84 0 1.48 0.37 t1.09 1.05 t0.68 1.64 t0.23 2.16 t-0.31 2.18 t-0.85 1.66 t-1.27 1.05 t-1.59 0.37 z M50.967499999999994 12.219999999999999 q-0.84 0 -1.46 0.8 l0 4.4 q0.76 0.46 1.3 0.46 q1.36 0 1.36 -3.02 q0 -2.64 -1.2 -2.64 z M66.93699999999998 18.56 q-0.1 0.42 -0.38 0.9 t-0.58 0.7 q-1.4 -0.04 -2.16 -1.06 q-1.3 1.2 -2.82 1.2 q-0.78 0 -1.36 -0.25 t-0.98 -0.67 t-0.6 -0.97 t-0.2 -1.15 q0 -0.86 0.31 -1.51 t0.85 -1.08 t1.26 -0.65 t1.54 -0.22 q0.46 0 0.81 0.01 t0.61 0.03 l0 -0.38 q0 -1.26 -1.3 -1.26 q-0.84 0 -2.94 0.64 q-0.6 -0.7 -0.76 -2.18 q0.48 -0.18 1.07 -0.34 t1.21 -0.28 t1.22 -0.19 t1.08 -0.07 q0.7 0 1.35 0.2 t1.14 0.61 t0.78 1.06 t0.29 1.55 l0 4.06 q0 0.92 0.56 1.3 z M60.89699999999999 17.06 q0 0.94 1.08 0.94 q0.56 0 1.26 -0.58 l0 -1.6 q-0.4 -0.02 -0.67 -0.03 t-0.41 -0.01 q-1.26 0 -1.26 1.28 z M74.7465 14.440000000000001 l0 -0.26 q0 -1.12 -0.24 -1.63 t-0.9 -0.51 q-0.7 0 -0.98 0.69 t-0.28 2.29 q0 0.8 0.11 1.34 t0.32 0.87 t0.53 0.48 t0.76 0.15 q0.46 0 1.02 -0.2 t1.2 -0.64 q0.18 0.1 0.37 0.29 t0.35 0.43 t0.28 0.51 t0.18 0.51 q-0.66 0.7 -1.72 1.12 t-2.16 0.42 q-2.14 0 -3.28 -1.4 t-1.14 -3.98 q0 -1.32 0.37 -2.3 t0.98 -1.62 t1.4 -0.96 t1.65 -0.32 q0.88 0 1.61 0.24 t1.26 0.68 t0.82 1.05 t0.29 1.35 q0 0.84 -0.49 1.18 t-1.21 0.34 q-0.6 0 -1.1 -0.12 z M88.136 16.02 l-5.22 0 q0.04 0.9 0.46 1.4 t1.38 0.5 q0.48 0 1.11 -0.14 t1.45 -0.46 q0.66 0.68 0.82 1.84 q-1.6 1.14 -3.92 1.14 q-1.26 0 -2.11 -0.4 t-1.38 -1.12 t-0.75 -1.7 t-0.22 -2.14 q0 -1.12 0.27 -2.07 t0.82 -1.65 t1.4 -1.1 t1.99 -0.4 q0.96 0 1.73 0.32 t1.31 0.88 t0.83 1.34 t0.29 1.7 q0 1.22 -0.26 2.06 z M82.89599999999999 13.86 l2.64 0 l0 -0.22 q0 -0.74 -0.33 -1.22 t-0.99 -0.48 q-0.64 0 -0.95 0.45 t-0.37 1.47 z" fill="url(&quot;#SvgjsLinearGradient9388&quot;)"></path></g></svg>